<svg width="146" height="126" viewBox="0 0 146 126" fill="none" xmlns="http://www.w3.org/2000/svg">
  <style>
    .path {
      stroke: black;
      stroke-width: 9;
      stroke-linecap: round;
    }

    @media (prefers-color-scheme: dark){
    .path {
      stroke: white;
    }
  }
  </style>
  <g class="path">
    <path d="M45.2583 16.7407C39.7944 18.8655 34.9386 23.5559 29.7489 26.439C26.3995 28.2998 23.2855 30.4187 20.0105 32.2901C15.3743 34.9394 12.7969 40.3684 12.7969 45.5953C12.7969 53.5731 27.024 51.3283 31.5524 50.6448C44.1313 48.7461 55.9655 46.6867 66.4985 39.103C73.3612 34.1618 80.4312 25.8713 84.5727 18.5441C85.959 16.0914 87.9948 11.7103 84.7731 9.68733C81.5362 7.65487 75.6691 6.41341 71.9488 5.59959C69.8775 5.14649 66.3268 4.64155 64.1741 5.35914C61.0332 6.40609 60.3088 8.82365 58.2028 10.9297C54.4321 14.7003 50.4845 13.0749 45.9797 14.5766"/>
    <path d="M12.0752 47.0377C14.0711 55.7697 14.2393 64.4476 14.2393 73.3675C14.2393 75.8917 13.6822 79.0252 14.9607 81.2624C15.8312 82.7859 17.5336 85.27 19.6495 85.27C22.7217 85.27 25.7836 86.7127 28.9872 86.7127C34.5669 86.7127 40.0661 88.8768 45.6187 88.8768C50.6608 88.8768 55.4863 86.7744 60.4066 86.0715C66.045 85.2661 70.7562 82.7371 75.1545 79.1384C78.4626 76.4318 79.9018 72.0371 83.33 69.4C85.7491 67.5392 87.1253 64.6971 89.9826 63.2684C92.2159 62.1517 94.2696 60.4498 95.7535 58.4192C100.545 51.8629 107.765 45.7527 108.017 36.9386C108.151 32.2366 107.477 31.0904 110.742 28.1219C114.415 24.783 111.125 20.8541 107.616 18.9045C102.959 16.3171 99.2698 12.8971 94.3108 10.8091C91.0604 9.44056 87.7247 9.52671 84.2117 9.52671"/>
    <path d="M14.7917 81.1321C13.2093 84.2968 11.4221 87.4904 10.0892 90.7621C9.23266 92.8646 9.08005 95.4871 8.03814 97.4406C6.71149 99.9281 6.5233 103.315 5.43678 105.895C3.78768 109.812 7.13801 112.23 9.98917 113.999C12.2158 115.381 15.4589 115.692 17.9183 116.676C20.8897 117.864 24.2476 118.202 27.3983 118.602C42.2961 120.49 60.0889 124.307 73.5225 115.6C76.6789 113.554 80.3611 112.605 83.4277 110.397C86.4471 108.224 89.5538 106.427 92.6826 104.444C96.3718 102.106 99.5413 98.8295 103.063 96.24C106.557 93.6708 110.387 91.8849 113.293 88.536C117.579 83.5981 121.465 79.0629 124.749 73.378C127.604 68.4366 129.916 63.1819 132.554 58.17C134.771 53.9575 137.013 49.9078 138.056 45.2132C138.504 43.1996 139.27 41.2928 139.732 39.2601C140.115 37.5765 140.133 35.6689 140.758 34.1074C141.543 32.1452 140.186 30.2876 139.982 28.4544C139.822 27.0064 140.181 25.0171 139.407 23.7019C139.012 23.0295 134.493 23.4532 133.629 23.2517C132.109 22.8969 130.727 22.0282 129.202 21.7509C128.292 21.5855 127.358 21.8084 126.45 21.6008C124.911 21.2489 122.69 21.2083 121.298 20.5753C120.314 20.1284 118.622 19.4911 117.546 19.4497C115.119 19.3563 112.671 19.4497 110.242 19.4497" />
  </g>
</svg>
